<svg xmlns="http://www.w3.org/2000/svg" version="1.1" xmlns:xlink="http://www.w3.org/1999/xlink" xmlns:svgjs="http://svgjs.com/svgjs" width="1440" height="560" preserveAspectRatio="none" viewBox="0 0 1440 560"><g mask="url(&quot;#SvgjsMask3213&quot;)" fill="none"><rect width="1440" height="560" x="0" y="0" fill="url(#SvgjsRadialGradient3214)"></rect><use xlink:href="#SvgjsSymbol3221" x="0" y="0"></use><use xlink:href="#SvgjsSymbol3221" x="720" y="0"></use></g><defs><mask id="SvgjsMask3213"><rect width="1440" height="560" fill="#ffffff"></rect></mask><radialGradient cx="50%" cy="50%" r="772.53" gradientUnits="userSpaceOnUse" id="SvgjsRadialGradient3214"><stop stop-color="#0e2a47" offset="0"></stop><stop stop-color="rgba(0, 31, 41, 1)" offset="1"></stop></radialGradient><path d="M-1 0 a1 1 0 1 0 2 0 a1 1 0 1 0 -2 0z" id="SvgjsPath3220"></path><path d="M-3 0 a3 3 0 1 0 6 0 a3 3 0 1 0 -6 0z" id="SvgjsPath3219"></path><path d="M-5 0 a5 5 0 1 0 10 0 a5 5 0 1 0 -10 0z" id="SvgjsPath3217"></path><path d="M2 -2 L-2 2z" id="SvgjsPath3216"></path><path d="M6 -6 L-6 6z" id="SvgjsPath3218"></path><path d="M30 -30 L-30 30z" id="SvgjsPath3215"></path></defs><symbol id="SvgjsSymbol3221"><use xlink:href="#SvgjsPath3215" x="30" y="30" stroke="#1c538e" stroke-width="3"></use><use xlink:href="#SvgjsPath3216" x="30" y="90" stroke="#1c538e"></use><use xlink:href="#SvgjsPath3217" x="30" y="150" stroke="#1c538e"></use><use xlink:href="#SvgjsPath3217" x="30" y="210" stroke="#1c538e"></use><use xlink:href="#SvgjsPath3218" x="30" y="270" stroke="#1c538e"></use><use xlink:href="#SvgjsPath3217" x="30" y="330" stroke="#1c538e"></use><use xlink:href="#SvgjsPath3219" x="30" y="390" stroke="#1c538e"></use><use xlink:href="#SvgjsPath3220" x="30" y="450" stroke="#1c538e"></use><use xlink:href="#SvgjsPath3220" x="30" y="510" stroke="#1c538e"></use><use xlink:href="#SvgjsPath3217" x="30" y="570" stroke="#1c538e"></use><use xlink:href="#SvgjsPath3218" x="90" y="30" stroke="#1c538e"></use><use xlink:href="#SvgjsPath3216" x="90" y="90" stroke="#1c538e"></use><use xlink:href="#SvgjsPath3217" x="90" y="150" stroke="#1c538e"></use><use xlink:href="#SvgjsPath3218" x="90" y="210" stroke="#1c538e"></use><use xlink:href="#SvgjsPath3216" x="90" y="270" stroke="#1c538e"></use><use xlink:href="#SvgjsPath3219" x="90" y="330" stroke="#1c538e"></use><use xlink:href="#SvgjsPath3216" x="90" y="390" stroke="#1c538e"></use><use xlink:href="#SvgjsPath3217" x="90" y="450" stroke="#1c538e"></use><use xlink:href="#SvgjsPath3217" x="90" y="510" stroke="#1c538e"></use><use xlink:href="#SvgjsPath3220" x="90" y="570" stroke="#1c538e"></use><use xlink:href="#SvgjsPath3216" x="150" y="30" stroke="#1c538e"></use><use xlink:href="#SvgjsPath3217" x="150" y="90" stroke="#1c538e"></use><use xlink:href="#SvgjsPath3217" x="150" y="150" stroke="#1c538e"></use><use xlink:href="#SvgjsPath3217" x="150" y="210" stroke="#1c538e"></use><use xlink:href="#SvgjsPath3217" x="150" y="270" stroke="#1c538e"></use><use xlink:href="#SvgjsPath3217" x="150" y="330" stroke="#1c538e"></use><use xlink:href="#SvgjsPath3217" x="150" y="390" stroke="#1c538e"></use><use xlink:href="#SvgjsPath3217" x="150" y="450" stroke="#1c538e"></use><use xlink:href="#SvgjsPath3217" x="150" y="510" stroke="#1c538e"></use><use xlink:href="#SvgjsPath3216" x="150" y="570" stroke="#1c538e"></use><use xlink:href="#SvgjsPath3216" x="210" y="30" stroke="#1c538e"></use><use xlink:href="#SvgjsPath3219" x="210" y="90" stroke="#1c538e"></use><use xlink:href="#SvgjsPath3220" x="210" y="150" stroke="#1c538e"></use><use xlink:href="#SvgjsPath3217" x="210" y="210" stroke="#1c538e"></use><use xlink:href="#SvgjsPath3218" x="210" y="270" stroke="#1c538e"></use><use xlink:href="#SvgjsPath3218" x="210" y="330" stroke="#1c538e"></use><use xlink:href="#SvgjsPath3218" x="210" y="390" stroke="#1c538e"></use><use xlink:href="#SvgjsPath3220" x="210" y="450" stroke="#1c538e"></use><use xlink:href="#SvgjsPath3215" x="210" y="510" stroke="#1c538e" stroke-width="3"></use><use xlink:href="#SvgjsPath3218" x="210" y="570" stroke="#1c538e"></use><use xlink:href="#SvgjsPath3217" x="270" y="30" stroke="#1c538e"></use><use xlink:href="#SvgjsPath3217" x="270" y="90" stroke="#1c538e"></use><use xlink:href="#SvgjsPath3219" x="270" y="150" stroke="#1c538e"></use><use xlink:href="#SvgjsPath3219" x="270" y="210" stroke="#1c538e"></use><use xlink:href="#SvgjsPath3218" x="270" y="270" stroke="#1c538e"></use><use xlink:href="#SvgjsPath3218" x="270" y="330" stroke="#1c538e"></use><use xlink:href="#SvgjsPath3218" x="270" y="390" stroke="#1c538e"></use><use xlink:href="#SvgjsPath3218" x="270" y="450" stroke="#1c538e"></use><use xlink:href="#SvgjsPath3217" x="270" y="510" stroke="#1c538e"></use><use xlink:href="#SvgjsPath3218" x="270" y="570" stroke="#1c538e"></use><use xlink:href="#SvgjsPath3218" x="330" y="30" stroke="#1c538e"></use><use xlink:href="#SvgjsPath3216" x="330" y="90" stroke="#1c538e"></use><use xlink:href="#SvgjsPath3218" x="330" y="150" stroke="#1c538e"></use><use xlink:href="#SvgjsPath3217" x="330" y="210" stroke="#1c538e"></use><use xlink:href="#SvgjsPath3217" x="330" y="270" stroke="#1c538e"></use><use xlink:href="#SvgjsPath3218" x="330" y="330" stroke="#1c538e"></use><use xlink:href="#SvgjsPath3217" x="330" y="390" stroke="#1c538e"></use><use xlink:href="#SvgjsPath3216" x="330" y="450" stroke="#1c538e"></use><use xlink:href="#SvgjsPath3218" x="330" y="510" stroke="#1c538e"></use><use xlink:href="#SvgjsPath3218" x="330" y="570" stroke="#1c538e"></use><use xlink:href="#SvgjsPath3218" x="390" y="30" stroke="#1c538e"></use><use xlink:href="#SvgjsPath3219" x="390" y="90" stroke="#1c538e"></use><use xlink:href="#SvgjsPath3218" x="390" y="150" stroke="#1c538e"></use><use xlink:href="#SvgjsPath3218" x="390" y="210" stroke="#1c538e"></use><use xlink:href="#SvgjsPath3218" x="390" y="270" stroke="#1c538e"></use><use xlink:href="#SvgjsPath3216" x="390" y="330" stroke="#1c538e"></use><use xlink:href="#SvgjsPath3219" x="390" y="390" stroke="#1c538e"></use><use xlink:href="#SvgjsPath3216" x="390" y="450" stroke="#1c538e"></use><use xlink:href="#SvgjsPath3218" x="390" y="510" stroke="#1c538e"></use><use xlink:href="#SvgjsPath3217" x="390" y="570" stroke="#1c538e"></use><use xlink:href="#SvgjsPath3218" x="450" y="30" stroke="#1c538e"></use><use xlink:href="#SvgjsPath3218" x="450" y="90" stroke="#1c538e"></use><use xlink:href="#SvgjsPath3218" x="450" y="150" stroke="#1c538e"></use><use xlink:href="#SvgjsPath3218" x="450" y="210" stroke="#1c538e"></use><use xlink:href="#SvgjsPath3217" x="450" y="270" stroke="#1c538e"></use><use xlink:href="#SvgjsPath3217" x="450" y="330" stroke="#1c538e"></use><use xlink:href="#SvgjsPath3218" x="450" y="390" stroke="#1c538e"></use><use xlink:href="#SvgjsPath3215" x="450" y="450" stroke="#1c538e" stroke-width="3"></use><use xlink:href="#SvgjsPath3215" x="450" y="510" stroke="#1c538e" stroke-width="3"></use><use xlink:href="#SvgjsPath3217" x="450" y="570" stroke="#1c538e"></use><use xlink:href="#SvgjsPath3216" x="510" y="30" stroke="#1c538e"></use><use xlink:href="#SvgjsPath3219" x="510" y="90" stroke="#1c538e"></use><use xlink:href="#SvgjsPath3217" x="510" y="150" stroke="#1c538e"></use><use xlink:href="#SvgjsPath3220" x="510" y="210" stroke="#1c538e"></use><use xlink:href="#SvgjsPath3215" x="510" y="270" stroke="#1c538e" stroke-width="3"></use><use xlink:href="#SvgjsPath3217" x="510" y="330" stroke="#1c538e"></use><use xlink:href="#SvgjsPath3217" x="510" y="390" stroke="#1c538e"></use><use xlink:href="#SvgjsPath3219" x="510" y="450" stroke="#1c538e"></use><use xlink:href="#SvgjsPath3218" x="510" y="510" stroke="#1c538e"></use><use xlink:href="#SvgjsPath3217" x="510" y="570" stroke="#1c538e"></use><use xlink:href="#SvgjsPath3220" x="570" y="30" stroke="#1c538e"></use><use xlink:href="#SvgjsPath3217" x="570" y="90" stroke="#1c538e"></use><use xlink:href="#SvgjsPath3216" x="570" y="150" stroke="#1c538e"></use><use xlink:href="#SvgjsPath3217" x="570" y="210" stroke="#1c538e"></use><use xlink:href="#SvgjsPath3216" x="570" y="270" stroke="#1c538e"></use><use xlink:href="#SvgjsPath3219" x="570" y="330" stroke="#1c538e"></use><use xlink:href="#SvgjsPath3216" x="570" y="390" stroke="#1c538e"></use><use xlink:href="#SvgjsPath3217" x="570" y="450" stroke="#1c538e"></use><use xlink:href="#SvgjsPath3217" x="570" y="510" stroke="#1c538e"></use><use xlink:href="#SvgjsPath3216" x="570" y="570" stroke="#1c538e"></use><use xlink:href="#SvgjsPath3219" x="630" y="30" stroke="#1c538e"></use><use xlink:href="#SvgjsPath3216" x="630" y="90" stroke="#1c538e"></use><use xlink:href="#SvgjsPath3218" x="630" y="150" stroke="#1c538e"></use><use xlink:href="#SvgjsPath3219" x="630" y="210" stroke="#1c538e"></use><use xlink:href="#SvgjsPath3217" x="630" y="270" stroke="#1c538e"></use><use xlink:href="#SvgjsPath3218" x="630" y="330" stroke="#1c538e"></use><use xlink:href="#SvgjsPath3216" x="630" y="390" stroke="#1c538e"></use><use xlink:href="#SvgjsPath3220" x="630" y="450" stroke="#1c538e"></use><use xlink:href="#SvgjsPath3218" x="630" y="510" stroke="#1c538e"></use><use xlink:href="#SvgjsPath3218" x="630" y="570" stroke="#1c538e"></use><use xlink:href="#SvgjsPath3219" x="690" y="30" stroke="#1c538e"></use><use xlink:href="#SvgjsPath3217" x="690" y="90" stroke="#1c538e"></use><use xlink:href="#SvgjsPath3217" x="690" y="150" stroke="#1c538e"></use><use xlink:href="#SvgjsPath3216" x="690" y="210" stroke="#1c538e"></use><use xlink:href="#SvgjsPath3218" x="690" y="270" stroke="#1c538e"></use><use xlink:href="#SvgjsPath3218" x="690" y="330" stroke="#1c538e"></use><use xlink:href="#SvgjsPath3218" x="690" y="390" stroke="#1c538e"></use><use xlink:href="#SvgjsPath3218" x="690" y="450" stroke="#1c538e"></use><use xlink:href="#SvgjsPath3218" x="690" y="510" stroke="#1c538e"></use><use xlink:href="#SvgjsPath3218" x="690" y="570" stroke="#1c538e"></use></symbol></svg>